<svg width="157" height="157" viewBox="0 0 157 157" fill="none" xmlns="http://www.w3.org/2000/svg">
<g filter="url(#filter0_d_648_5755)">
<circle cx="78.5" cy="63.5" r="48.5" fill="white"/>
<path d="M79.5622 46.3843C79.2537 46.163 78.8831 46.0449 78.5034 46.0469C78.1238 46.0489 77.7545 46.1708 77.4483 46.3953C74.086 48.8318 63.834 57.1258 63.834 67.6638C63.834 73.6166 67.4053 78.7426 72.513 81.0398C71.6391 79.81 71.1689 78.3391 71.1673 76.8305C71.1362 70.9253 77.6903 64.1933 77.969 63.9971C78.1237 63.8862 78.3093 63.8266 78.4997 63.8266C78.6901 63.8266 78.8757 63.8862 79.0305 63.9971C79.3091 64.1933 85.834 69.4495 85.834 76.8341C85.834 78.3998 85.3298 79.8463 84.4901 81.0398C89.596 78.7426 93.1673 73.6185 93.1673 67.673C93.1673 56.9278 82.9336 48.7768 79.5622 46.3843V46.3843Z" fill="#4C40F7"/>
</g>
<defs>
<filter id="filter0_d_648_5755" x="0" y="0" width="157" height="157" filterUnits="userSpaceOnUse" color-interpolation-filters="sRGB">
<feFlood flood-opacity="0" result="BackgroundImageFix"/>
<feColorMatrix in="SourceAlpha" type="matrix" values="0 0 0 0 0 0 0 0 0 0 0 0 0 0 0 0 0 0 127 0" result="hardAlpha"/>
<feOffset dy="15"/>
<feGaussianBlur stdDeviation="15"/>
<feComposite in2="hardAlpha" operator="out"/>
<feColorMatrix type="matrix" values="0 0 0 0 0.214421 0 0 0 0 0.177604 0 0 0 0 0.739062 0 0 0 1 0"/>
<feBlend mode="normal" in2="BackgroundImageFix" result="effect1_dropShadow_648_5755"/>
<feBlend mode="normal" in="SourceGraphic" in2="effect1_dropShadow_648_5755" result="shape"/>
</filter>
</defs>
</svg>
