<svg width="157" height="157" viewBox="0 0 157 157" fill="none" xmlns="http://www.w3.org/2000/svg">
<g filter="url(#filter0_d_648_5816)">
<circle cx="78.5" cy="63.5" r="48.5" fill="#FF6800"/>
<rect width="40" height="40" transform="translate(58.5 44)" fill="#FF6800"/>
<path d="M68.5007 79.0026H63.5007C63.0586 79.0026 62.6347 78.827 62.3221 78.5144C62.0096 78.2019 61.834 77.778 61.834 77.3359V64.0026C61.834 63.5606 62.0096 63.1367 62.3221 62.8241C62.6347 62.5115 63.0586 62.3359 63.5007 62.3359H68.5007C68.9427 62.3359 69.3666 62.5115 69.6792 62.8241C69.9917 63.1367 70.1673 63.5606 70.1673 64.0026V77.3359C70.1673 77.778 69.9917 78.2019 69.6792 78.5144C69.3666 78.827 68.9427 79.0026 68.5007 79.0026ZM80.1673 79.0026H75.1673C74.7253 79.0026 74.3014 78.827 73.9888 78.5144C73.6762 78.2019 73.5007 77.778 73.5007 77.3359V49.0026C73.5007 48.5606 73.6762 48.1367 73.9888 47.8241C74.3014 47.5115 74.7253 47.3359 75.1673 47.3359H80.1673C80.6093 47.3359 81.0333 47.5115 81.3458 47.8241C81.6584 48.1367 81.834 48.5606 81.834 49.0026V77.3359C81.834 77.778 81.6584 78.2019 81.3458 78.5144C81.0333 78.827 80.6093 79.0026 80.1673 79.0026ZM91.834 79.0026H86.834C86.392 79.0026 85.968 78.827 85.6555 78.5144C85.3429 78.2019 85.1673 77.778 85.1673 77.3359V59.0026C85.1673 58.5606 85.3429 58.1367 85.6555 57.8241C85.968 57.5115 86.392 57.3359 86.834 57.3359H91.834C92.276 57.3359 92.6999 57.5115 93.0125 57.8241C93.3251 58.1367 93.5007 58.5606 93.5007 59.0026V77.3359C93.5007 77.778 93.3251 78.2019 93.0125 78.5144C92.6999 78.827 92.276 79.0026 91.834 79.0026Z" fill="white"/>
</g>
<defs>
<filter id="filter0_d_648_5816" x="0" y="0" width="157" height="157" filterUnits="userSpaceOnUse" color-interpolation-filters="sRGB">
<feFlood flood-opacity="0" result="BackgroundImageFix"/>
<feColorMatrix in="SourceAlpha" type="matrix" values="0 0 0 0 0 0 0 0 0 0 0 0 0 0 0 0 0 0 127 0" result="hardAlpha"/>
<feOffset dy="15"/>
<feGaussianBlur stdDeviation="15"/>
<feComposite in2="hardAlpha" operator="out"/>
<feColorMatrix type="matrix" values="0 0 0 0 1 0 0 0 0 0.407843 0 0 0 0 0 0 0 0 0.4 0"/>
<feBlend mode="normal" in2="BackgroundImageFix" result="effect1_dropShadow_648_5816"/>
<feBlend mode="normal" in="SourceGraphic" in2="effect1_dropShadow_648_5816" result="shape"/>
</filter>
</defs>
</svg>
