<svg width="157" height="157" viewBox="0 0 157 157" fill="none" xmlns="http://www.w3.org/2000/svg">
<g filter="url(#filter0_d_648_5804)">
<circle cx="78.5" cy="63.5" r="48.5" fill="#007BFF"/>
<rect width="40" height="40" transform="translate(57.5 44)" fill="#007BFF"/>
<path d="M92.5007 55.6667H82.5007C82.0586 55.6667 81.6347 55.8423 81.3221 56.1548C81.0096 56.4674 80.834 56.8913 80.834 57.3333V62.3333H77.5007V50.6667C77.5007 50.2246 77.3251 49.8007 77.0125 49.4882C76.6999 49.1756 76.276 49 75.834 49H62.5007C62.0586 49 61.6347 49.1756 61.3221 49.4882C61.0096 49.8007 60.834 50.2246 60.834 50.6667V77.3333C60.834 77.7754 61.0096 78.1993 61.3221 78.5118C61.6347 78.8244 62.0586 79 62.5007 79H92.5007C92.9427 79 93.3666 78.8244 93.6792 78.5118C93.9917 78.1993 94.1673 77.7754 94.1673 77.3333V57.3333C94.1673 56.8913 93.9917 56.4674 93.6792 56.1548C93.3666 55.8423 92.9427 55.6667 92.5007 55.6667ZM70.834 54H74.1673V57.3333H70.834V54ZM67.5007 70.6667H64.1673V67.3333H67.5007V70.6667ZM67.5007 64H64.1673V60.6667H67.5007V64ZM67.5007 57.3333H64.1673V54H67.5007V57.3333ZM74.1673 70.6667H70.834V67.3333H74.1673V70.6667ZM74.1673 64H70.834V60.6667H74.1673V64ZM89.1673 70.6667H85.834V67.3333H89.1673V70.6667ZM89.1673 64H85.834V60.6667H89.1673V64Z" fill="white"/>
</g>
<defs>
<filter id="filter0_d_648_5804" x="0" y="0" width="157" height="157" filterUnits="userSpaceOnUse" color-interpolation-filters="sRGB">
<feFlood flood-opacity="0" result="BackgroundImageFix"/>
<feColorMatrix in="SourceAlpha" type="matrix" values="0 0 0 0 0 0 0 0 0 0 0 0 0 0 0 0 0 0 127 0" result="hardAlpha"/>
<feOffset dy="15"/>
<feGaussianBlur stdDeviation="15"/>
<feComposite in2="hardAlpha" operator="out"/>
<feColorMatrix type="matrix" values="0 0 0 0 0 0 0 0 0 0.482353 0 0 0 0 1 0 0 0 0.4 0"/>
<feBlend mode="normal" in2="BackgroundImageFix" result="effect1_dropShadow_648_5804"/>
<feBlend mode="normal" in="SourceGraphic" in2="effect1_dropShadow_648_5804" result="shape"/>
</filter>
</defs>
</svg>
