<svg width="157" height="157" viewBox="0 0 157 157" fill="none" xmlns="http://www.w3.org/2000/svg">
<g filter="url(#filter0_d_648_5767)">
<circle cx="78.5" cy="63.5" r="48.5" fill="#FF2D59"/>
<path d="M77.8115 55.666H71.3365C70.6523 55.6658 69.9845 55.8762 69.424 56.2686C68.8634 56.661 68.4372 57.2164 68.2032 57.8594L61.9365 75.096C61.7148 75.7044 61.8665 76.386 62.3232 76.8444L62.8115 77.3327L73.5148 66.6294C73.5132 66.586 73.5015 66.5427 73.5015 66.4994C73.5015 66.0049 73.6481 65.5216 73.9228 65.1104C74.1975 64.6993 74.588 64.3789 75.0448 64.1897C75.5016 64.0005 76.0043 63.9509 76.4892 64.0474C76.9742 64.1439 77.4196 64.382 77.7693 64.7316C78.1189 65.0812 78.357 65.5267 78.4535 66.0116C78.5499 66.4966 78.5004 66.9993 78.3112 67.4561C78.122 67.9129 77.8016 68.3033 77.3904 68.578C76.9793 68.8528 76.496 68.9994 76.0015 68.9994C75.9582 68.9994 75.9148 68.9877 75.8715 68.986L65.1682 79.6894L65.6565 80.1777C65.8806 80.4024 66.1643 80.5582 66.4741 80.6267C66.784 80.6952 67.1069 80.6736 67.4048 80.5644L84.6415 74.296C85.2845 74.062 85.8399 73.6358 86.2323 73.0752C86.6247 72.5147 86.8351 71.847 86.8348 71.1627V64.6877L90.1665 61.3577L81.1432 52.3344L77.8115 55.666V55.666ZM91.7332 59.1027L83.3998 50.7694L86.9332 47.2344L95.2665 55.5677L91.7332 59.1027Z" fill="white"/>
</g>
<defs>
<filter id="filter0_d_648_5767" x="0" y="0" width="157" height="157" filterUnits="userSpaceOnUse" color-interpolation-filters="sRGB">
<feFlood flood-opacity="0" result="BackgroundImageFix"/>
<feColorMatrix in="SourceAlpha" type="matrix" values="0 0 0 0 0 0 0 0 0 0 0 0 0 0 0 0 0 0 127 0" result="hardAlpha"/>
<feOffset dy="15"/>
<feGaussianBlur stdDeviation="15"/>
<feComposite in2="hardAlpha" operator="out"/>
<feColorMatrix type="matrix" values="0 0 0 0 1 0 0 0 0 0.176471 0 0 0 0 0.34902 0 0 0 0.4 0"/>
<feBlend mode="normal" in2="BackgroundImageFix" result="effect1_dropShadow_648_5767"/>
<feBlend mode="normal" in="SourceGraphic" in2="effect1_dropShadow_648_5767" result="shape"/>
</filter>
</defs>
</svg>
